# xmcd CD database file
#
# Track frame offsets:
#	182
#	7695
#	32520
#	44707
#	47905
#	62475
#	90490
#	98250
#	118165
#	138895
#	145327
#	167602
#	173237
#	196185
#	202467
#	218047
#	219797
#	237650
#	243812
#
# Disc length: 3411 seconds
#
# Revision: 0
# Processed by: cddbd v1.5.1PL0 Copyright (c) Steve Scherf et al.
# Submitted via: CDex 1.50
#
DISCID=030d5113
DTITLE=Uman - Chaleur Humaine
DYEAR=1992
DGENRE=New Age
TTITLE0=Chaleur Humaine (russe)
TTITLE1=The white spirit
TTITLE2=Aubade
TTITLE3=Human warmth
TTITLE4=Entrelacs
TTITLE5=Memoire vive
TTITLE6=Chaleur humaine
TTITLE7=Cordes sensibles
TTITLE8=Maelstrom
TTITLE9=Chaleur Humaine (arabe)
TTITLE10=Atmosphere
TTITLE11=Calor humano
TTITLE12=Human
TTITLE13=Hoi am cua nhan loai
TTITLE14=Lalala
TTITLE15=Menselijke warmte
TTITLE16=Menestrel
TTITLE17=Chaleur Humaine (hebreu)
TTITLE18=Deambulation
EXTD=YEAR: 1992
EXTT0=
EXTT1=
EXTT2=
EXTT3=
EXTT4=
EXTT5=
EXTT6=
EXTT7=
EXTT8=
EXTT9=
EXTT10=
EXTT11=
EXTT12=
EXTT13=
EXTT14=
EXTT15=
EXTT16=
EXTT17=
EXTT18=
PLAYORDER=
